<?xml version="1.0" encoding="UTF-8"?>
<svg version="1.1" xmlns="http://www.w3.org/2000/svg" width="1280" height="1280">
<path d="M0 0 C2.24638283 0.00544333 4.49275512 0.0078084 6.73914337 0.00987244 C28.88182249 0.04156642 50.77241517 0.61362706 72.77277374 3.31785583 C74.67905548 3.53466003 74.67905548 3.53466003 76.62384796 3.75584412 C145.72225493 11.64107873 213.23464517 32.10434523 275.77277374 62.31785583 C276.83544464 62.82993591 277.89811554 63.34201599 278.99298859 63.86961365 C317.6422324 82.58930657 354.8879246 105.79798901 388.16242218 133.00730896 C390.36752583 134.80188088 392.60253807 136.55784921 394.83527374 138.31785583 C404.78901355 146.28416008 414.34773791 154.73730321 423.77277374 163.31785583 C424.58875031 164.0410199 425.40472687 164.76418396 426.24542999 165.50926208 C433.59698396 172.09921622 440.59762549 179.03436877 447.58527374 186.00535583 C448.08513794 186.50263184 448.58500214 186.99990784 449.10001373 187.51225281 C454.87910196 193.26775389 460.47355729 199.11519002 465.77277374 205.31785583 C467.22722891 206.92553956 468.68498269 208.53025298 470.14777374 210.13035583 C474.87848877 215.37961467 479.34361068 220.81344579 483.77277374 226.31785583 C484.68651816 227.43920885 485.60059513 228.56029095 486.51496124 229.68113708 C499.44745653 245.60424472 511.43013689 262.22994145 522.77277374 279.31785583 C523.32932648 280.15622986 523.88587921 280.99460388 524.45929718 281.85838318 C534.37877526 296.90169891 543.23623559 312.45528494 551.77277374 328.31785583 C552.37122101 329.42290466 552.96966827 330.52795349 553.58625031 331.66648865 C593.12467485 404.97776737 615.21035718 486.59773041 622.77277374 569.31785583 C622.86082779 570.25943542 622.94888184 571.20101501 623.03960419 572.17112732 C623.81988049 581.27105933 623.9687652 590.33699092 624.01105499 599.46238708 C624.01589905 600.26644108 624.0207431 601.07049507 624.02573395 601.89891434 C624.0619141 607.97605609 624.07803019 614.05311614 624.08527374 620.13035583 C624.08657162 621.02106403 624.08786949 621.91177223 624.0892067 622.82947159 C624.11758981 648.49109682 623.88580934 673.87539669 620.07025909 699.30595398 C619.76730371 701.35484979 619.48360993 703.40559984 619.20539093 705.45799255 C611.65480514 760.96272628 596.86423825 814.84079449 574.77277374 866.31785583 C574.30403839 867.42000427 573.83530304 868.52215271 573.35236359 869.65769958 C556.82176612 908.36894644 535.95691497 944.89251753 511.77277374 979.31785583 C511.1668338 980.18821472 511.1668338 980.18821472 510.54865265 981.07615662 C498.68967029 998.10555828 485.86045364 1014.63761927 471.88996124 1029.98582458 C469.99226205 1032.07609473 468.1254396 1034.18771698 466.27277374 1036.31785583 C465.10703116 1037.65199717 463.94023195 1038.98521551 462.77277374 1040.31785583 C462.16763947 1041.0098407 461.56250519 1041.70182556 460.93903351 1042.41477966 C454.86539822 1049.26426818 448.48069647 1055.76346121 441.99762726 1062.22337341 C440.20601424 1064.00960254 438.4198432 1065.80114931 436.63410187 1067.59324646 C430.84909359 1073.38196803 425.03101674 1079.03644942 418.77277374 1084.31785583 C417.60426227 1085.33918652 416.43758475 1086.36261934 415.27277374 1087.38816833 C391.42280906 1108.24083652 366.28070326 1126.98552915 339.77277374 1144.31785583 C339.0442923 1144.79690369 338.31581085 1145.27595154 337.56525421 1145.76951599 C255.06961659 1199.80955349 160.0322687 1229.99202999 60.22199249 1240.48582458 C59.56232986 1240.555439 58.90266724 1240.62505341 58.22301483 1240.69677734 C56.0739681 1240.9168532 53.92403015 1241.12049695 51.77277374 1241.31785583 C50.82537827 1241.40594513 49.87798279 1241.49403442 48.90187836 1241.58479309 C40.31994764 1242.31941706 31.77706118 1242.49784942 23.16730499 1242.52098083 C22.43835211 1242.52380821 21.70939922 1242.52663559 20.95835686 1242.52954865 C17.08065577 1242.54444226 13.20299076 1242.55372678 9.32526398 1242.55809021 C6.20274576 1242.56242125 3.08051225 1242.57611513 -0.04192352 1242.59910583 C-62.95215003 1243.05255972 -125.20864078 1233.0979484 -185.22722626 1214.31785583 C-186.3279245 1213.97383728 -187.42862274 1213.62981873 -188.56267548 1213.27537537 C-242.00674235 1196.39954386 -293.72398751 1171.57696016 -340.22722626 1140.31785583 C-340.89657196 1139.86845642 -341.56591766 1139.41905701 -342.25554657 1138.95603943 C-362.86514424 1125.06353445 -382.79401952 1110.16108732 -401.51531219 1093.8032074 C-403.30597179 1092.24953184 -405.11182671 1090.71528926 -406.92253876 1089.18504333 C-412.59432252 1084.38578418 -418.14443352 1079.59189354 -423.30706024 1074.23704529 C-425.12365959 1072.42136983 -426.99630416 1070.74945113 -428.94988251 1069.08348083 C-433.24307254 1065.35364834 -437.28125532 1061.41215444 -441.28972626 1057.38035583 C-441.95810516 1056.71584412 -442.62648407 1056.0513324 -443.31511688 1055.36668396 C-447.23247185 1051.44171508 -450.95930908 1047.40699232 -454.5814743 1043.20872498 C-457.01877003 1040.40842007 -459.5630225 1037.71287155 -462.10222626 1035.00535583 C-467.40007967 1029.3034009 -472.37501242 1023.4054742 -477.22722626 1017.31785583 C-478.16010037 1016.16492943 -479.09373581 1015.01261876 -480.02800751 1013.86082458 C-536.11956064 944.52632725 -577.56670198 863.42392848 -618.54508209 624.03072357 C-618.53963911 621.78184847 -618.53727391 619.53298391 -618.53520966 617.28410339 C-618.50404048 595.49102507 -617.96314661 573.96286925 -615.22722626 552.31785583 C-614.9337725 549.78015146 -614.64080854 547.24239039 -614.34832001 544.70457458 C-606.12791318 476.32992536 -585.88814839 410.34787125 -556.22722626 348.31785583 C-555.54708466 346.88965515 -555.54708466 346.88965515 -554.85320282 345.43260193 C-547.74655889 330.59897517 -539.69152879 316.414327 -531.22722626 302.31785583 C-530.72126923 301.47142517 -530.21531219 300.62499451 -529.69402313 299.75291443 C-523.49875107 289.40731037 -517.05990389 279.25446373 -510.22722626 269.31785583 C-509.75671844 268.63336365 -509.28621063 267.94887146 -508.80144501 267.24363708 C-502.36176536 257.91544677 -495.66476414 248.85975719 -488.57732391 240.01512146 C-487.22049595 238.30939488 -485.88332061 236.58999357 -484.55144501 234.86473083 C-477.75160133 226.07168067 -470.58975558 217.64382189 -463.22722626 209.31785583 C-462.09027313 208.0281488 -462.09027313 208.0281488 -460.93035126 206.71238708 C-435.60769054 178.29579226 -435.60769054 178.29579226 -421.40691376 166.21629333 C-419.08953681 164.19793276 -416.84505058 162.11435771 -414.59978485 160.0165863 C-409.20674704 154.97985467 -403.7220998 150.14848871 -397.96550751 145.52488708 C-395.05971286 143.18284147 -392.20606691 140.78536179 -389.35222626 138.38035583 C-318.18097191 79.07097722 -231.2451441 37.70560755 0 0 Z " fill="#010100" transform="translate(637.2272262573242,18.682144165039063)"/>
<path d="M0 0 C2.24638283 0.00544333 4.49275512 0.0078084 6.73914337 0.00987244 C28.88182249 0.04156642 50.77241517 0.61362706 72.77277374 3.31785583 C74.67905548 3.53466003 74.67905548 3.53466003 76.62384796 3.75584412 C145.72225493 11.64107873 213.23464517 32.10434523 275.77277374 62.31785583 C276.83544464 62.82993591 277.89811554 63.34201599 278.99298859 63.86961365 C317.6422324 82.58930657 354.8879246 105.79798901 388.16242218 133.00730896 C390.36752583 134.80188088 392.60253807 136.55784921 394.83527374 138.31785583 C404.78901355 146.28416008 414.34773791 154.73730321 423.77277374 163.31785583 C424.58875031 164.0410199 425.40472687 164.76418396 426.24542999 165.50926208 C433.59698396 172.09921622 440.59762549 179.03436877 447.58527374 186.00535583 C448.08513794 186.50263184 448.58500214 186.99990784 449.10001373 187.51225281 C454.87910196 193.26775389 460.47355729 199.11519002 465.77277374 205.31785583 C467.22722891 206.92553956 468.68498269 208.53025298 470.14777374 210.13035583 C474.87848877 215.37961467 479.34361068 220.81344579 483.77277374 226.31785583 C484.68651816 227.43920885 485.60059513 228.56029095 486.51496124 229.68113708 C499.44745653 245.60424472 511.43013689 262.22994145 522.77277374 279.31785583 C523.32932648 280.15622986 523.88587921 280.99460388 524.45929718 281.85838318 C534.37877526 296.90169891 543.23623559 312.45528494 551.77277374 328.31785583 C552.37122101 329.42290466 552.96966827 330.52795349 553.58625031 331.66648865 C593.12467485 404.97776737 615.21035718 486.59773041 622.77277374 569.31785583 C622.86082779 570.25943542 622.94888184 571.20101501 623.03960419 572.17112732 C623.81988049 581.27105933 623.9687652 590.33699092 624.01105499 599.46238708 C624.01589905 600.26644108 624.0207431 601.07049507 624.02573395 601.89891434 C624.0619141 607.97605609 624.07803019 614.05311614 624.08527374 620.13035583 C624.08657162 621.02106403 624.08786949 621.91177223 624.0892067 622.82947159 C624.11758981 648.49109682 623.88580934 673.87539669 620.07025909 699.30595398 C619.76730371 701.35484979 619.48360993 703.40559984 619.20539093 705.45799255 C611.65480514 760.96272628 596.86423825 814.84079449 574.77277374 866.31785583 C574.30403839 867.42000427 573.83530304 868.52215271 573.35236359 869.65769958 C556.82176612 908.36894644 535.95691497 944.89251753 511.77277374 979.31785583 C511.1668338 980.18821472 511.1668338 980.18821472 510.54865265 981.07615662 C498.68967029 998.10555828 485.86045364 1014.63761927 471.88996124 1029.98582458 C469.99226205 1032.07609473 468.1254396 1034.18771698 466.27277374 1036.31785583 C465.10703116 1037.65199717 463.94023195 1038.98521551 462.77277374 1040.31785583 C462.16763947 1041.0098407 461.56250519 1041.70182556 460.93903351 1042.41477966 C454.86539822 1049.26426818 448.48069647 1055.76346121 441.99762726 1062.22337341 C440.20601424 1064.00960254 438.4198432 1065.80114931 436.63410187 1067.59324646 C430.84909359 1073.38196803 425.03101674 1079.03644942 418.77277374 1084.31785583 C417.60426227 1085.33918652 416.43758475 1086.36261934 415.27277374 1087.38816833 C391.42280906 1108.24083652 366.28070326 1126.98552915 339.77277374 1144.31785583 C339.0442923 1144.79690369 338.31581085 1145.27595154 337.56525421 1145.76951599 C255.06961659 1199.80955349 160.0322687 1229.99202999 60.22199249 1240.48582458 C59.56232986 1240.555439 58.90266724 1240.62505341 58.22301483 1240.69677734 C56.0739681 1240.9168532 53.92403015 1241.12049695 51.77277374 1241.31785583 C50.82537827 1241.40594513 49.87798279 1241.49403442 48.90187836 1241.58479309 C40.31994764 1242.31941706 31.77706118 1242.49784942 23.16730499 1242.52098083 C22.43835211 1242.52380821 21.70939922 1242.52663559 20.95835686 1242.52954865 C17.08065577 1242.54444226 13.20299076 1242.55372678 9.32526398 1242.55809021 C6.20274576 1242.56242125 3.08051225 1242.57611513 -0.04192352 1242.59910583 C-62.95215003 1243.05255972 -125.20864078 1233.0979484 -185.22722626 1214.31785583 C-186.3279245 1213.97383728 -187.42862274 1213.62981873 -188.56267548 1213.27537537 C-242.00674235 1196.39954386 -293.72398751 1171.57696016 -340.22722626 1140.31785583 C-340.89657196 1139.86845642 -341.56591766 1139.41905701 -342.25554657 1138.95603943 C-362.86514424 1125.06353445 -382.79401952 1110.16108732 -401.51531219 1093.8032074 C-403.30597179 1092.24953184 -405.11182671 1090.71528926 -406.92253876 1089.18504333 C-412.59432252 1084.38578418 -418.14443352 1079.59189354 -423.30706024 1074.23704529 C-425.12365959 1072.42136983 -426.99630416 1070.74945113 -428.94988251 1069.08348083 C-433.24307254 1065.35364834 -437.28125532 1061.41215444 -441.28972626 1057.38035583 C-441.95810516 1056.71584412 -442.62648407 1056.0513324 -443.31511688 1055.36668396 C-447.23247185 1051.44171508 -450.95930908 1047.40699232 -454.5814743 1043.20872498 C-457.01877003 1040.40842007 -459.5630225 1037.71287155 -462.10222626 1035.00535583 C-467.40007967 1029.3034009 -472.37501242 1023.4054742 -477.22722626 1017.31785583 C-478.16010037 1016.16492943 -479.09373581 1015.01261876 -480.02800751 1013.86082458 C-536.11956064 944.52632725 -577.56670198 863.42392848 -618.54508209 624.03072357 C-618.53963911 621.78184847 -618.53727391 619.53298391 -618.53520966 617.28410339 C-618.50404048 595.49102507 -617.96314661 573.96286925 -615.22722626 552.31785583 C-614.9337725 549.78015146 -614.64080854 547.24239039 -614.34832001 544.70457458 C-606.12791318 476.32992536 -585.88814839 410.34787125 -556.22722626 348.31785583 C-555.54708466 346.88965515 -555.54708466 346.88965515 -554.85320282 345.43260193 C-547.74655889 330.59897517 -539.69152879 316.414327 -531.22722626 302.31785583 C-530.72126923 301.47142517 -530.21531219 300.62499451 -529.69402313 299.75291443 C-523.49875107 289.40731037 -517.05990389 279.25446373 -510.22722626 269.31785583 C-509.75671844 268.63336365 -509.28621063 267.94887146 -508.80144501 267.24363708 C-502.36176536 257.91544677 -495.66476414 248.85975719 -488.57732391 240.01512146 C-487.22049595 238.30939488 -485.88332061 236.58999357 -484.55144501 234.86473083 C-477.75160133 226.07168067 -470.58975558 217.64382189 -463.22722626 209.31785583 C-462.09027313 208.0281488 -462.09027313 208.0281488 -460.93035126 206.71238708 C-435.60769054 178.29579226 -435.60769054 178.29579226 -421.40691376 166.21629333 C-419.08953681 164.19793276 -416.84505058 162.11435771 -414.59978485 160.0165863 C-409.20674704 154.97985467 -403.7220998 150.14848871 -397.96550751 145.52488708 C-395.05971286 143.18284147 -392.20606691 140.78536179 -389.35222626 138.38035583 C-318.18097191 79.07097722 -231.2451441 37.70560755 0 0 Z M-344.22722626 132.31785583 C-344.22722626 460.00785583 -344.22722626 787.69785583 -344.22722626 1125.31785583 C-115.86722626 1125.31785583 112.49277374 1125.31785583 347.77277374 1125.31785583 C347.77277374 797.62785583 347.77277374 469.93785583 347.77277374 132.31785583 C119.41277374 132.31785583 -108.94722626 132.31785583 -344.22722626 132.31785583 Z " fill="#FCCB02" transform="translate(637.2272262573242,18.682144165039063)"/>
<path d="M0 0 C199.98 0 399.96 0 606 0 C606 134.31 606 268.62 606 407 C406.02 407 206.04 407 0 407 C0 272.69 0 138.38 0 0 Z " fill="#FBCB02" transform="translate(336,693)"/>
<path d="M0 0 C0.85885803 -0.00428513 1.71771606 -0.00857025 2.6026001 -0.01298523 C4.4214185 -0.01871442 6.2402598 -0.01923921 8.05908203 -0.01489258 C10.7780942 -0.01177609 13.49596939 -0.03505588 16.21484375 -0.06054688 C46.30920928 -0.16871243 72.24865022 7.99306545 94.078125 29.30078125 C111.51964743 46.86578348 118.20094405 70.32435748 118.23925781 94.58007812 C118.24422272 95.35387817 118.24918762 96.12767822 118.25430298 96.92492676 C118.26877092 99.45647104 118.27570236 101.9879526 118.28125 104.51953125 C118.28549107 105.83232811 118.28549107 105.83232811 118.28981781 107.17164612 C118.30475151 111.80779311 118.31401643 116.44390949 118.31835938 121.08007812 C118.32382082 125.81899254 118.34781635 130.5576163 118.37633133 135.29644012 C118.39514822 138.98409793 118.40017342 142.67168854 118.40169525 146.35939026 C118.40468196 148.10374023 118.41257175 149.84809021 118.42588043 151.59239197 C118.57417075 172.53001782 115.1447035 191.67761103 105.078125 210.30078125 C104.418125 210.30078125 103.758125 210.30078125 103.078125 210.30078125 C102.871875 210.96078125 102.665625 211.62078125 102.453125 212.30078125 C96.20417035 225.93486412 83.59411017 234.89777046 71.078125 242.30078125 C70.00949219 242.96335937 68.94085937 243.6259375 67.83984375 244.30859375 C51.35817429 253.63940091 31.58583158 255.78339913 13.015625 255.73828125 C12.32587585 255.73832153 11.63612671 255.73836182 10.92547607 255.73840332 C-1.39521564 255.69656486 -13.52495104 254.73648653 -25.296875 250.92578125 C-25.96968506 250.70809082 -26.64249512 250.49040039 -27.33569336 250.26611328 C-32.14537311 248.66813935 -36.48193661 246.72256583 -40.921875 244.30078125 C-42.035625 243.86765625 -43.149375 243.43453125 -44.296875 242.98828125 C-56.43386464 237.33830331 -67.9514062 226.75226571 -74.921875 215.30078125 C-74.921875 214.64078125 -74.921875 213.98078125 -74.921875 213.30078125 C-75.911875 212.97078125 -76.901875 212.64078125 -77.921875 212.30078125 C-79.05706087 209.90329235 -80.01816666 207.59612579 -80.921875 205.11328125 C-81.41930932 203.78549432 -81.91928463 202.45865637 -82.421875 201.1328125 C-82.66639404 200.48086914 -82.91091309 199.82892578 -83.1628418 199.15722656 C-83.97962024 197.0630216 -83.97962024 197.0630216 -85.56640625 194.2734375 C-87.18854071 190.71596105 -87.42573926 187.8188589 -87.609375 183.92578125 C-87.67511719 182.68054688 -87.74085938 181.4353125 -87.80859375 180.15234375 C-87.84597656 179.21132813 -87.88335938 178.2703125 -87.921875 177.30078125 C-88.581875 177.30078125 -89.241875 177.30078125 -89.921875 177.30078125 C-90.98736093 167.31497289 -91.08537194 157.40283406 -91.08984375 147.375 C-91.09306678 145.65688552 -91.09643159 143.93877129 -91.09992981 142.22065735 C-91.10588171 138.63611211 -91.10777375 135.05159084 -91.10717773 131.46704102 C-91.10707624 126.91528581 -91.12073314 122.36368703 -91.13794994 117.8119688 C-91.14916672 114.26765766 -91.15109401 110.72338322 -91.15056801 107.17905617 C-91.15173342 105.50284091 -91.15607228 103.82662424 -91.16390038 102.15042686 C-91.23276469 85.88612133 -90.79532746 68.74615054 -82.875 54.1171875 C-81.76839784 52.0981292 -81.76839784 52.0981292 -80.671875 48.98828125 C-74.76514174 35.01536386 -62.12260691 23.67668054 -49.921875 15.30078125 C-49.13296875 14.74519531 -48.3440625 14.18960938 -47.53125 13.6171875 C-42.40669037 10.26182107 -37.03300266 8.05368404 -31.296875 5.98828125 C-30.59216064 5.73344971 -29.88744629 5.47861816 -29.16137695 5.21606445 C-25.69326153 4.02844244 -22.42233621 3.15737124 -18.7734375 2.7578125 C-15.05240416 2.47216808 -15.05240416 2.47216808 -12.23876953 1.29101562 C-8.07287531 0.04731866 -4.32216776 -0.00486694 0 0 Z " fill="#040300" transform="translate(740.921875,773.69921875)"/>
<path d="M0 0 C0 0.66 0 1.32 0 2 C0.87785156 2.24363281 1.75570312 2.48726562 2.66015625 2.73828125 C8.35124988 4.88824996 12.47844672 9.02050427 17 13 C17.98226562 13.85464844 17.98226562 13.85464844 18.984375 14.7265625 C24.35195552 19.72481409 28.08586124 25.84535423 32 32 C32.66 32.99 33.32 33.98 34 35 C34.53135407 36.9028596 35.00451822 38.82237489 35.4375 40.75 C36.27823726 44.28792482 37.12459721 47.62197578 38.625 50.9375 C42.86776487 60.38729448 41 69.14916927 41 80 C25.16 80 9.32 80 -7 80 C-8.61110167 75.166695 -9.22223317 72.47828456 -9.375 67.625 C-9.75741403 61.82285612 -10.81650621 57.83379993 -14 53 C-14.39574219 52.37351562 -14.79148437 51.74703125 -15.19921875 51.1015625 C-17.70760829 47.35084755 -20.34027213 44.69664159 -24 42 C-24.45890625 41.51144531 -24.9178125 41.02289062 -25.390625 40.51953125 C-27.20551255 38.80596024 -28.84632944 37.94615883 -31.125 36.9375 C-31.82882812 36.61652344 -32.53265625 36.29554688 -33.2578125 35.96484375 C-41.6609027 33.0082009 -49.6953493 32.66320644 -58.5625 32.6875 C-60.33270508 32.66333008 -60.33270508 32.66333008 -62.13867188 32.63867188 C-68.89770791 32.63488954 -73.81643581 33.31549733 -80 36 C-81.32 36 -82.64 36 -84 36 C-84 36.66 -84 37.32 -84 38 C-84.71285156 38.2371875 -85.42570312 38.474375 -86.16015625 38.71875 C-96.17454485 43.23693358 -103.29425127 52.88919647 -107.10780334 62.91134644 C-110.29761399 73.01971268 -110.57149586 82.36644304 -110.49609375 92.8828125 C-110.4962492 94.67251647 -110.49774571 96.46222076 -110.50050354 98.25192261 C-110.50187803 101.97848639 -110.48948802 105.70466085 -110.46655273 109.43115234 C-110.43812955 114.17609225 -110.4409296 118.92038882 -110.45364285 123.66537666 C-110.46063972 127.35286836 -110.45276595 131.04021472 -110.44038582 134.72768784 C-110.43591308 136.47614863 -110.43549737 138.22462526 -110.43945122 139.97308731 C-110.4543271 152.33172796 -110.27142394 164.44470719 -103 175 C-102.34 175.33 -101.68 175.66 -101 176 C-100.7525 176.70125 -100.505 177.4025 -100.25 178.125 C-97.4235713 184.62578602 -92.24748998 189.71246574 -85.6796875 192.31640625 C-84.41484105 192.74196051 -83.146389 193.15691035 -81.875 193.5625 C-80.86759766 193.8867395 -80.86759766 193.8867395 -79.83984375 194.2175293 C-63.93087651 199.23488473 -46.45873563 200.41091073 -30.7890625 193.60546875 C-23.0651038 189.5157051 -18.03902048 185.77885426 -14 178 C-13.34 178 -12.68 178 -12 178 C-11.50948023 176.23227781 -11.03336326 174.46055927 -10.5625 172.6875 C-10.29566406 171.70136719 -10.02882813 170.71523438 -9.75390625 169.69921875 C-8.76850491 164.86411474 -8.44674824 159.91423062 -8 155 C-27.14 155 -46.28 155 -66 155 C-66 140.81 -66 126.62 -66 112 C-30.69 112 4.62 112 41 112 C41 153.58 41 195.16 41 238 C25.16 238 9.32 238 -7 238 C-7 229.75 -7 221.5 -7 213 C-7.99 213 -8.98 213 -10 213 C-10.27199219 213.56847656 -10.54398438 214.13695312 -10.82421875 214.72265625 C-14.73630315 222.29988284 -19.78804279 229.27492459 -27 234 C-27.66 234 -28.32 234 -29 234 C-29 234.66 -29 235.32 -29 236 C-50.44466679 245.06210113 -76.44609958 246.69797636 -98.39453125 237.98828125 C-100.87410904 237.04775174 -103.30500454 236.39146425 -105.875 235.75 C-124.85878135 230.14526455 -140.22021415 212.70887597 -149.52734375 195.96484375 C-152.41999936 190.14116839 -155 184.55744254 -155 178 C-155.66 178 -156.32 178 -157 178 C-158.10228696 173.59085217 -158.07654536 169.51617599 -158 165 C-158.66 165 -159.32 165 -160 165 C-160.02316338 152.17836038 -160.04093552 139.35672574 -160.05181217 126.53506947 C-160.05703223 120.58155898 -160.06411402 114.6280628 -160.07543945 108.67456055 C-160.08629941 102.92984056 -160.09228345 97.18513435 -160.09487724 91.44040489 C-160.09672587 89.24794994 -160.10033573 87.05549574 -160.10573006 84.86304665 C-160.11298167 81.79385368 -160.11398919 78.72471772 -160.11352539 75.65551758 C-160.11712067 74.74777084 -160.12071594 73.84002411 -160.12442017 72.9047699 C-160.11770866 68.80426256 -160.03931712 64.99894015 -159 61 C-158.34 61 -157.68 61 -157 61 C-156.938125 59.989375 -156.87625 58.97875 -156.8125 57.9375 C-154.67865899 41.42215521 -146.41483987 27.75409211 -135 16 C-134.38640625 15.31292969 -133.7728125 14.62585938 -133.140625 13.91796875 C-118.1463553 -2.32582343 -97.11665794 -8.52482673 -76 -12 C-74.37964844 -12.28037109 -74.37964844 -12.28037109 -72.7265625 -12.56640625 C-48.88692571 -15.34020047 -20.85485793 -12.77222119 0 0 Z " fill="#050400" transform="translate(579,786)"/>
<path d="M0 0 C0.57234375 0.46792969 1.1446875 0.93585938 1.734375 1.41796875 C3.88171427 2.12311721 3.88171427 2.12311721 5.734375 2.41796875 C5.734375 3.07796875 5.734375 3.73796875 5.734375 4.41796875 C6.46269531 4.68609375 7.19101562 4.95421875 7.94140625 5.23046875 C18.78879763 9.84250648 28.61309214 18.90436021 33.734375 29.41796875 C34.7331289 30.4192133 35.73301168 31.41933394 36.734375 32.41796875 C37.89282952 34.94630676 38.7448783 37.51095332 39.62792969 40.14770508 C40.32894761 42.21966782 41.05114463 44.28468464 41.80200195 46.33911133 C44.71545377 54.79784898 45.22538619 62.33918195 44.984375 71.23046875 C44.901875 75.58234375 44.819375 79.93421875 44.734375 84.41796875 C28.234375 84.41796875 11.734375 84.41796875 -5.265625 84.41796875 C-5.595625 78.80796875 -5.925625 73.19796875 -6.265625 67.41796875 C-8.26287245 57.75129108 -10.08577178 51.23852061 -18.265625 45.41796875 C-21.48895607 43.38668217 -24.72589687 41.82110422 -28.265625 40.41796875 C-29.06226563 40.09828125 -29.85890625 39.77859375 -30.6796875 39.44921875 C-44.36038709 34.87486719 -60.93266805 36.28530406 -74.265625 41.41796875 C-80.28035251 44.92588155 -85.03820844 49.03241247 -87.4453125 55.671875 C-88.32503754 59.68928602 -88.46331622 63.24841484 -88.390625 67.35546875 C-88.38160156 68.03931641 -88.37257813 68.72316406 -88.36328125 69.42773438 C-88.34001458 71.09130162 -88.30415667 72.75468506 -88.265625 74.41796875 C-87.605625 74.41796875 -86.945625 74.41796875 -86.265625 74.41796875 C-84.93359375 76.24609375 -84.93359375 76.24609375 -83.453125 78.66796875 C-79.40260554 84.91007362 -75.30381465 87.8696587 -68.265625 90.41796875 C-65.93744536 90.78557606 -63.6037865 91.12038456 -61.265625 91.41796875 C-60.40195312 91.71703125 -59.53828125 92.01609375 -58.6484375 92.32421875 C-54.38612835 93.70233256 -50.09852743 94.51848648 -45.703125 95.35546875 C-32.75573581 97.88796541 -19.96842364 100.84001893 -7.265625 104.41796875 C-6.53714355 104.62212402 -5.80866211 104.8262793 -5.05810547 105.03662109 C-2.83072004 105.66897001 -0.61019136 106.32125081 1.609375 106.98046875 C2.65411987 107.27703369 2.65411987 107.27703369 3.7199707 107.57958984 C5.6640625 108.171875 5.6640625 108.171875 8.734375 109.41796875 C9.064375 110.40796875 9.394375 111.39796875 9.734375 112.41796875 C10.53875 112.68609375 11.343125 112.95421875 12.171875 113.23046875 C24.48125227 117.33359451 36.45145039 127.77838894 43.734375 138.41796875 C43.734375 139.73796875 43.734375 141.05796875 43.734375 142.41796875 C44.394375 142.41796875 45.054375 142.41796875 45.734375 142.41796875 C46.38481219 144.14540891 47.02952344 145.87500565 47.671875 147.60546875 C48.03152344 148.56839844 48.39117188 149.53132812 48.76171875 150.5234375 C51.11784263 157.53503508 50.91795513 164.33781515 50.921875 171.66796875 C50.93412109 172.85777344 50.94636719 174.04757812 50.95898438 175.2734375 C50.97002749 181.9361178 50.60513784 188.01054169 48.734375 194.41796875 C48.4765625 195.31128906 48.21875 196.20460938 47.953125 197.125 C47.59734375 198.16720703 47.59734375 198.16720703 47.234375 199.23046875 C46.87859375 200.29201172 46.87859375 200.29201172 46.515625 201.375 C45.71488892 203.46892486 44.7701974 205.43115424 43.734375 207.41796875 C43.074375 207.41796875 42.414375 207.41796875 41.734375 207.41796875 C41.47140625 208.13726562 41.2084375 208.8565625 40.9375 209.59765625 C33.66251007 226.65136642 16.65759095 236.05333143 0.375 242.8125 C-3.1406707 244.15315323 -6.66838596 245.31522105 -10.265625 246.41796875 C-11.50570312 246.81242188 -12.74578125 247.206875 -14.0234375 247.61328125 C-24.07063502 250.4781546 -34.07710777 250.78981513 -44.453125 250.79296875 C-45.12382019 250.79487213 -45.79451538 250.79677551 -46.48553467 250.79873657 C-59.7182213 250.79448871 -72.69937164 249.79392662 -85.265625 245.41796875 C-86.461875 245.02609375 -87.658125 244.63421875 -88.890625 244.23046875 C-90.06625 243.82828125 -90.06625 243.82828125 -91.265625 243.41796875 C-91.265625 242.75796875 -91.265625 242.09796875 -91.265625 241.41796875 C-92.379375 241.29421875 -93.493125 241.17046875 -94.640625 241.04296875 C-98.265625 240.41796875 -98.265625 240.41796875 -100.265625 238.41796875 C-101.7196875 237.86109375 -101.7196875 237.86109375 -103.203125 237.29296875 C-113.5534922 232.95526299 -121.18622388 224.86024923 -128.265625 216.41796875 C-129.01972656 215.52464844 -129.77382813 214.63132812 -130.55078125 213.7109375 C-132.265625 211.41796875 -132.265625 211.41796875 -132.265625 209.41796875 C-132.925625 209.41796875 -133.585625 209.41796875 -134.265625 209.41796875 C-135.73778015 205.50694323 -137.20670244 201.59479465 -138.66796875 197.6796875 C-139.60319172 195.17559613 -140.55224279 192.67954846 -141.51953125 190.1875 C-142.04353516 188.81658203 -142.04353516 188.81658203 -142.578125 187.41796875 C-142.88363281 186.63421875 -143.18914063 185.85046875 -143.50390625 185.04296875 C-146.37327669 175.15467678 -145.265625 164.50536573 -145.265625 154.41796875 C-128.435625 154.41796875 -111.605625 154.41796875 -94.265625 154.41796875 C-93.770625 165.80296875 -93.770625 165.80296875 -93.265625 177.41796875 C-91.615625 180.05796875 -89.965625 182.69796875 -88.265625 185.41796875 C-87.75 186.24425781 -87.234375 187.07054687 -86.703125 187.921875 C-80.97631794 196.1230362 -72.19116577 200.83915602 -62.50854492 203.06274414 C-58.06888287 203.76587991 -53.62543168 203.71170127 -49.140625 203.66796875 C-48.12379639 203.65975098 -47.10696777 203.6515332 -46.05932617 203.64306641 C-33.05270421 203.45074335 -19.96080046 202.86531721 -9.55078125 193.94921875 C-8.43958682 192.78736197 -7.35044409 191.60448963 -6.265625 190.41796875 C-4.140625 189.78125 -4.140625 189.78125 -2.265625 189.41796875 C-0.70568401 182.43609692 0.21899548 175.55190627 0.734375 168.41796875 C0.074375 168.41796875 -0.585625 168.41796875 -1.265625 168.41796875 C-1.8534375 167.08765625 -1.8534375 167.08765625 -2.453125 165.73046875 C-5.92790333 159.3800118 -10.64147322 156.33748334 -16.953125 153.29296875 C-17.60990234 152.95910156 -18.26667969 152.62523437 -18.94335938 152.28125 C-28.85500467 147.39725087 -39.03535411 145.682606 -49.890625 144.04296875 C-63.4289044 141.91914744 -75.64923115 138.85703632 -88.265625 133.41796875 C-90.53214271 132.53184996 -92.80288569 131.65644723 -95.078125 130.79296875 C-101.05509868 128.52323191 -101.05509868 128.52323191 -103.265625 127.41796875 C-103.265625 126.75796875 -103.265625 126.09796875 -103.265625 125.41796875 C-105.78358545 124.13125768 -108.27019633 123.00228406 -110.890625 121.91796875 C-122.32317714 116.14846851 -130.26804252 103.8830109 -135.265625 92.41796875 C-135.265625 91.75796875 -135.265625 91.09796875 -135.265625 90.41796875 C-135.925625 90.41796875 -136.585625 90.41796875 -137.265625 90.41796875 C-139.23658617 82.54310338 -139.56964298 75.01166319 -139.515625 66.91796875 C-139.52335938 65.75910156 -139.53109375 64.60023438 -139.5390625 63.40625 C-139.51716014 53.71445427 -138.5073407 45.21560131 -134.265625 36.41796875 C-133.93949219 35.6703125 -133.61335937 34.92265625 -133.27734375 34.15234375 C-126.4144143 19.15295156 -113.57213427 6.62573313 -98.265625 0.41796875 C-96.71294922 -0.22591797 -96.71294922 -0.22591797 -95.12890625 -0.8828125 C-85.99448391 -4.41367815 -76.91823322 -6.15487239 -67.265625 -7.58203125 C-65.61433594 -7.86046875 -65.61433594 -7.86046875 -63.9296875 -8.14453125 C-46.08646913 -10.27506479 -15.5521134 -10.85966539 0 0 Z " fill="#F9F9F9" transform="translate(794.265625,299.58203125)"/>
<path d="M0 0 C0.67802673 -0.00385712 1.35605347 -0.00771423 2.05462646 -0.01168823 C9.029204 -0.03126607 14.99383668 0.21371974 21.6875 2.3125 C23.80932685 2.80552789 25.93436325 3.28496271 28.0625 3.75 C36.73810012 5.73526318 44.62596424 8.55807318 52.6875 12.3125 C52.6875 12.9725 52.6875 13.6325 52.6875 14.3125 C53.38101563 14.54710937 54.07453125 14.78171875 54.7890625 15.0234375 C58.24872976 16.56210353 61.09590929 18.62412349 64.0625 20.9375 C64.92621216 21.61063232 64.92621216 21.61063232 65.80737305 22.29736328 C70.34662998 25.90850028 74.19457238 29.66376178 77.6875 34.3125 C78.65236328 35.47845703 78.65236328 35.47845703 79.63671875 36.66796875 C86.9257818 46.28953198 89.82547014 57.73722407 92.6875 69.3125 C92.89793945 70.14765137 93.10837891 70.98280273 93.32519531 71.84326172 C95.30846422 80.94511142 94.6875 88.48622685 94.6875 98.3125 C77.8575 98.3125 61.0275 98.3125 43.6875 98.3125 C43.0275 91.0525 42.3675 83.7925 41.6875 76.3125 C35.76499498 62.49332161 28.44945211 55.34230329 14.6875 49.3125 C1.39290246 45.08304161 -15.63359684 45.20206384 -28.47265625 50.7734375 C-40.17550667 57.11583511 -48.25306504 66.61871133 -52.3125 79.3125 C-52.704375 80.50875 -53.09625 81.705 -53.5 82.9375 C-55.00130579 89.17369327 -55.43845253 95.28553057 -55.48950195 101.68383789 C-55.49607315 102.37292236 -55.50264435 103.06200684 -55.50941467 103.77197266 C-55.52893556 106.02636877 -55.54076451 108.28069886 -55.55078125 110.53515625 C-55.55485678 111.31447447 -55.5589323 112.09379269 -55.56313133 112.89672661 C-55.58390553 117.02481689 -55.59824232 121.15287482 -55.60766602 125.28100586 C-55.61869149 129.50123471 -55.65307137 133.72093074 -55.69283772 137.94097233 C-55.7192328 141.22451116 -55.72737805 144.5079275 -55.73094749 147.79156303 C-55.73575733 149.34500144 -55.74720662 150.89843653 -55.76598549 152.45176888 C-55.98114419 171.43350666 -51.50738863 188.05187036 -38.3125 202.3125 C-33.38165875 206.99679918 -27.82751747 208.70013149 -21.3125 210.3125 C-21.3125 210.9725 -21.3125 211.6325 -21.3125 212.3125 C-16.9168999 212.43052706 -12.52171714 212.50035559 -8.125 212.5625 C-6.28518555 212.61277344 -6.28518555 212.61277344 -4.40820312 212.6640625 C8.81195358 212.80358922 20.53868685 209.81142104 30.4375 200.8125 C31.18 199.9875 31.9225 199.1625 32.6875 198.3125 C33.368125 197.590625 34.04875 196.86875 34.75 196.125 C41.77583339 185.9262096 42.67705485 173.64011653 43.44140625 161.61328125 C43.6875 159.3125 43.6875 159.3125 44.6875 158.3125 C46.25297048 158.21923284 47.82262772 158.19504418 49.39086914 158.19897461 C50.39183121 158.19905014 51.39279327 158.19912567 52.42408752 158.19920349 C53.5126152 158.20436478 54.60114288 158.20952606 55.72265625 158.21484375 C57.3852372 158.21696617 57.3852372 158.21696617 59.08140564 158.21913147 C62.63763069 158.22474967 66.19379383 158.23730525 69.75 158.25 C72.15429597 158.25501266 74.55859292 158.25957597 76.96289062 158.26367188 C82.87111504 158.27472501 88.7793031 158.29148083 94.6875 158.3125 C94.70957346 161.63019756 94.72270648 164.94787582 94.734375 168.265625 C94.74380127 169.6580542 94.74380127 169.6580542 94.75341797 171.07861328 C94.78401406 182.7153273 94.26292255 193.88960325 88.6875 204.3125 C88.10812612 205.54707302 87.53444139 206.78432364 86.96484375 208.0234375 C82.87001164 216.7918213 78.29076998 224.14081667 71.6875 231.3125 C71.14867187 231.94285156 70.60984375 232.57320312 70.0546875 233.22265625 C64.63085402 239.20522635 57.5215763 243.14419814 50.6875 247.3125 C49.49447266 248.09367187 49.49447266 248.09367187 48.27734375 248.890625 C24.06927751 262.18132803 -11.61559956 263.59891508 -37.75390625 256.06640625 C-41.63686163 254.89834579 -45.47870842 253.63241247 -49.3125 252.3125 C-49.3125 251.6525 -49.3125 250.9925 -49.3125 250.3125 C-52.9425 249.3225 -56.5725 248.3325 -60.3125 247.3125 C-60.3125 246.6525 -60.3125 245.9925 -60.3125 245.3125 C-61.04726563 245.21324219 -61.78203125 245.11398437 -62.5390625 245.01171875 C-67.32492426 243.80514233 -70.57753787 240.41529237 -74.3125 237.3125 C-74.92480469 236.84714844 -75.53710938 236.38179687 -76.16796875 235.90234375 C-80.91487723 232.17650941 -84.12405152 227.66838858 -87.515625 222.703125 C-89.25883198 220.10862038 -89.25883198 220.10862038 -92.3125 218.3125 C-92.3125 216.9925 -92.3125 215.6725 -92.3125 214.3125 C-92.9725 214.3125 -93.6325 214.3125 -94.3125 214.3125 C-97.54692288 207.07064752 -100.55463324 200.07641154 -102.3125 192.3125 C-102.9725 191.3225 -103.6325 190.3325 -104.3125 189.3125 C-107.41841832 178.55329794 -106.60351059 166.82599213 -106.578125 155.74609375 C-106.579475 153.6596726 -106.58141831 151.57325175 -106.58392334 149.48683167 C-106.58685818 145.13222229 -106.58262957 140.77769543 -106.57324219 136.4230957 C-106.56184159 130.86652536 -106.56842151 125.31014816 -106.58038712 119.75358486 C-106.58764408 115.45110135 -106.58530034 111.14866299 -106.58013153 106.84617805 C-106.578806 104.79823852 -106.5804039 102.75029476 -106.58509064 100.70236015 C-106.62996033 75.59406914 -106.62996033 75.59406914 -101.9375 65.3125 C-100.236185 61.47338101 -98.71459382 57.66704649 -97.375 53.6875 C-91.96304618 38.77266663 -81.02896176 26.51348939 -68.3125 17.3125 C-67.63960938 16.7865625 -66.96671875 16.260625 -66.2734375 15.71875 C-62.93246619 13.15970815 -61.65311021 12.3125 -57.3125 12.3125 C-57.3125 11.6525 -57.3125 10.9925 -57.3125 10.3125 C-38.03688166 3.19080778 -20.51023298 0.07380791 0 0 Z " fill="#F9F9F9" transform="translate(539.3125,290.6875)"/>
<path d="M0 0 C13.18275985 -0.56250121 24.28817147 2.71341007 36.21875 8.2265625 C38.71875 10.5390625 38.71875 10.5390625 41.21875 13.2265625 C42.36026083 14.12789729 43.50641044 15.02337715 44.65625 15.9140625 C52.73949353 22.83753631 57.30845958 33.90635619 58.45149612 44.35390091 C58.8344607 50.12020252 58.80519763 55.89166762 58.78515625 61.66796875 C58.79040471 63.52636524 58.7966856 65.38475906 58.80393982 67.2431488 C58.81428518 71.11689899 58.80986599 74.99028046 58.79516602 78.86401367 C58.77796112 83.79866407 58.80152552 88.73215179 58.83665562 93.66667271 C58.85873567 97.49744708 58.85716304 101.32794754 58.8488903 105.15876579 C58.84807709 106.97702246 58.85481839 108.79530052 58.86966133 110.61349678 C58.94281527 121.19071849 58.45455345 129.72630003 53.21875 139.2265625 C52.71102554 140.15864029 52.20330109 141.09071808 51.68019104 142.05104065 C47.46538302 149.54709242 42.77285404 155.93445793 35.21875 160.2265625 C34.55875 160.2265625 33.89875 160.2265625 33.21875 160.2265625 C33.21875 160.8865625 33.21875 161.5465625 33.21875 162.2265625 C31.49130984 162.87699969 29.7617131 163.52171094 28.03125 164.1640625 C27.06832031 164.52371094 26.10539063 164.88335938 25.11328125 165.25390625 C18.26045229 167.55667873 11.63740592 167.41272283 4.46362305 167.41186523 C2.42279991 167.41404482 0.38252412 167.43221013 -1.65820312 167.45117188 C-15.51374133 167.4716986 -27.03799691 164.32642576 -37.4609375 154.76953125 C-42.78125 148.9096141 -42.78125 148.9096141 -42.78125 146.2265625 C-43.44125 146.2265625 -44.10125 146.2265625 -44.78125 146.2265625 C-45.76633307 144.68078749 -46.71748755 143.11339858 -47.65625 141.5390625 C-48.18992187 140.66894531 -48.72359375 139.79882812 -49.2734375 138.90234375 C-53.68826927 128.13976165 -53.09324782 115.98300149 -53.08203125 104.53515625 C-53.08593039 102.85612383 -53.09026751 101.17709237 -53.09501648 99.49806213 C-53.10242434 96.00103538 -53.10222623 92.5041097 -53.09692383 89.00708008 C-53.09112093 84.55697246 -53.10810652 80.10727993 -53.1312685 75.65724087 C-53.14609344 72.19710429 -53.14686597 68.73706587 -53.14375877 65.27690315 C-53.14426708 63.63728065 -53.149411 61.99765194 -53.15957069 60.35806084 C-53.2508249 43.58396328 -50.90974766 28.09802405 -38.65625 15.6640625 C-33.66372612 10.92816368 -29.15172752 7.79177387 -22.78125 5.2265625 C-22.00265625 4.88238281 -21.2240625 4.53820312 -20.421875 4.18359375 C-13.39599769 1.16159373 -7.56323727 0.45316918 0 0 Z " fill="#FACA02" transform="translate(751.78125,816.7734375)"/>
<path d="M0 0 C57.85539176 -0.01710953 115.71078377 -0.03303128 173.56617737 -0.04234314 C174.42175 -0.0424812 175.27732263 -0.04261925 176.1588217 -0.04276149 C194.75040535 -0.04575404 213.34198902 -0.04852427 231.93357274 -0.05106533 C241.05019758 -0.05231272 250.16682243 -0.05360927 259.28344727 -0.05493164 C260.6443054 -0.05512778 260.6443054 -0.05512778 262.03265562 -0.05532788 C291.46626519 -0.05959316 320.89987285 -0.0671074 350.33348126 -0.07629722 C380.5672867 -0.08571979 410.80109107 -0.09188311 441.03489795 -0.09391499 C445.30014684 -0.09420317 449.56539572 -0.0945288 453.83064461 -0.09487724 C454.67014953 -0.09494467 455.50965445 -0.09501209 456.37459891 -0.09508156 C469.91649267 -0.09626565 483.45838316 -0.1009101 497.00027559 -0.10683203 C510.5973717 -0.11270486 524.19446456 -0.11497161 537.79156189 -0.11350138 C545.88087536 -0.11273781 553.97017696 -0.11479506 562.05948829 -0.12079754 C568.08297827 -0.12496384 574.10645534 -0.12397506 580.12994648 -0.12089889 C582.57947734 -0.12047295 585.02900917 -0.12177078 587.47853809 -0.12488318 C590.78478183 -0.12884291 594.09096558 -0.12676606 597.39720821 -0.12304783 C598.36841888 -0.12567484 599.33962955 -0.12830186 600.34027085 -0.13100848 C601.21260238 -0.12876118 602.08493392 -0.12651389 602.98369974 -0.1241985 C603.74098567 -0.12435448 604.4982716 -0.12451046 605.27850559 -0.12467116 C607 0 607 0 608 1 C608.09805334 3.17356601 608.12371138 5.35039332 608.12304783 7.52616978 C608.12420167 8.21955683 608.12535552 8.91294389 608.12654433 9.62734267 C608.12921767 11.98006517 608.12468298 14.33272095 608.12025452 16.68544006 C608.12069007 18.37747143 608.12156469 20.06950274 608.12284368 21.76153368 C608.12509172 26.43392812 608.12106317 31.10629986 608.11606562 35.77869141 C608.11176571 40.80871401 608.11320722 45.83873523 608.1139679 50.86875916 C608.11449342 59.59119536 608.11134362 68.3136241 608.10573006 77.03605843 C608.09761894 89.6473897 608.09500024 102.25871736 608.09374207 114.87005096 C608.09155093 135.32881532 608.08488919 155.78757569 608.07543945 176.24633789 C608.06626692 196.12556946 608.05918531 216.00479995 608.05493164 235.8840332 C608.05466892 237.10843867 608.05440619 238.33284413 608.05413551 239.59435279 C608.05283052 245.73655136 608.0515668 251.87874994 608.05032361 258.02094853 C608.03994908 309.01396844 608.02232911 360.00698402 608 411 C550.04927133 411.01710952 492.0985424 411.03303128 434.14781189 411.04234314 C433.29082952 411.0424812 432.43384715 411.04261925 431.55089562 411.04276149 C412.92867878 411.04575404 394.30646191 411.04852427 375.68424499 411.05106533 C366.55259887 411.05231272 357.42095275 411.05360927 348.28930664 411.05493164 C346.92620624 411.05512778 346.92620624 411.05512778 345.53556846 411.05532788 C316.05345708 411.05959316 286.57134761 411.0671074 257.08923739 411.07629722 C226.8056137 411.08571979 196.52199108 411.09188311 166.23836595 411.09391499 C161.96608977 411.09420317 157.69381358 411.0945288 153.4215374 411.09487724 C152.58064933 411.09494467 151.73976126 411.09501209 150.87339173 411.09508156 C137.30918198 411.09626565 123.74497549 411.1009101 110.18076707 411.10683203 C96.56126681 411.11270486 82.9417698 411.11497161 69.32226831 411.11350138 C61.21962415 411.11273781 53.11699183 411.11479507 45.01434979 411.12079754 C38.98093639 411.12496383 32.94753588 411.12397507 26.91412132 411.12089889 C24.4605528 411.12047295 22.00698332 411.12177078 19.55341674 411.12488318 C16.24172721 411.1288429 12.93009758 411.12676606 9.61840916 411.12304783 C8.64559414 411.12567484 7.67277913 411.12830186 6.67048487 411.13100848 C5.79671992 411.12876118 4.92295497 411.12651389 4.02271229 411.1241985 C3.26417851 411.12435448 2.50564474 411.12451046 1.72412509 411.12467116 C0 411 0 411 -1 410 C-1.09894504 407.83874091 -1.1255574 405.67417439 -1.12584114 403.51065159 C-1.12729458 402.82124047 -1.12874802 402.13182936 -1.13024551 401.421527 C-1.13393139 399.08231182 -1.1304072 396.74316076 -1.12698364 394.40394592 C-1.12813444 392.72158936 -1.12972169 391.03923305 -1.13171089 389.35687727 C-1.1359099 384.71114898 -1.13381095 380.06544106 -1.13072467 375.41971266 C-1.12847308 370.4182805 -1.13194898 365.41685198 -1.13470459 360.41542053 C-1.13916398 350.60835239 -1.13818504 340.80129187 -1.13529195 330.99422342 C-1.13303845 323.02706198 -1.13272516 315.05990268 -1.13381577 307.09274101 C-1.133969 305.96110656 -1.13412223 304.82947211 -1.13428011 303.66354571 C-1.13459982 301.3650227 -1.13492403 299.0664997 -1.1352527 296.76797669 C-1.13810802 275.18659403 -1.13481972 253.6052156 -1.12945233 232.02383363 C-1.12498485 213.48667146 -1.12575967 194.94951556 -1.13037109 176.41235352 C-1.13571698 154.91255208 -1.13783268 133.41275437 -1.13475883 111.91295236 C-1.13444026 109.62232649 -1.13412589 107.33170062 -1.13381577 105.04107475 C-1.13366149 103.91389418 -1.13350721 102.7867136 -1.13334826 101.62537603 C-1.13248311 93.66386024 -1.13394597 85.7023468 -1.13629532 77.74083138 C-1.1390937 68.04395615 -1.13835426 58.34708903 -1.13301457 48.65021474 C-1.13037799 43.69817888 -1.12937177 38.74615656 -1.13266373 33.79412079 C-1.1356276 29.26729532 -1.13403232 24.740496 -1.12868617 20.21367293 C-1.12756238 18.5696676 -1.12815235 16.9256601 -1.13056196 15.28165615 C-1.13357098 13.0594685 -1.13051617 10.8373723 -1.12584114 8.61518955 C-1.12567879 7.37708391 -1.12551644 6.13897826 -1.12534916 4.86335427 C-1 2 -1 2 0 0 Z M0 2 C0 136.31 0 270.62 0 409 C199.98 409 399.96 409 606 409 C606 274.69 606 140.38 606 2 C406.02 2 206.04 2 0 2 Z " fill="#635301" transform="translate(336,691)"/>
<path d="M0 0 C198.66 0 397.32 0 602 0 C602 0.33 602 0.66 602 1 C404.33 1 206.66 1 3 1 C2.03894517 4.84421931 1.86992464 7.82886745 1.8613348 11.7703743 C1.85849258 12.4537159 1.85565036 13.1370575 1.85272202 13.84110641 C1.84436918 16.14158061 1.84310635 18.44200447 1.84178162 20.74249268 C1.83721667 22.40411586 1.83221674 24.0657379 1.82681805 25.72735858 C1.8132199 30.30175134 1.80581373 34.87613666 1.79939139 39.45054436 C1.79139482 44.38031768 1.77769448 49.31007548 1.76467896 54.23983765 C1.74290567 62.78378056 1.72476429 71.32772504 1.70907402 79.87168121 C1.68638316 92.22488193 1.65823924 104.57806546 1.62875474 116.93125162 C1.58106922 136.97238933 1.53780763 157.01353406 1.49731445 177.0546875 C1.45796442 196.52539618 1.41653937 215.99609863 1.37231445 235.46679688 C1.36959018 236.6665182 1.36686591 237.86623953 1.36405908 239.10231605 C1.35037969 245.12083024 1.3366594 251.13934433 1.32291877 257.15785837 C1.20893891 307.1052259 1.10213289 357.05260694 1 407 C0.67 407 0.34 407 0 407 C0 272.69 0 138.38 0 0 Z " fill="#E4C301" transform="translate(336,693)"/>
<path d="M0 0 C0.88602402 0.00222061 1.77204803 0.00444122 2.68492126 0.00672913 C3.68588333 0.00680466 4.6868454 0.00688019 5.71813965 0.00695801 C6.80666733 0.01211929 7.89519501 0.01728058 9.01670837 0.02259827 C10.67928932 0.02472069 10.67928932 0.02472069 12.37545776 0.02688599 C15.93168281 0.03250418 19.48784596 0.04505977 23.04405212 0.05775452 C25.44834809 0.06276717 27.85264504 0.06733048 30.25694275 0.07142639 C36.1651699 0.08247953 42.0733505 0.09975635 47.98155212 0.12025452 C47.98155212 7.05025452 47.98155212 13.98025452 47.98155212 21.12025452 C47.65155212 21.12025452 47.32155212 21.12025452 46.98155212 21.12025452 C46.98155212 14.85025452 46.98155212 8.58025452 46.98155212 2.12025452 C31.14155212 2.12025452 15.30155212 2.12025452 -1.01844788 2.12025452 C-1.01844788 5.75025452 -1.01844788 9.38025452 -1.01844788 13.12025452 C-1.59153381 16.11616356 -2.19095464 18.89755028 -3.01844788 21.80775452 C-3.30461975 22.87799866 -3.30461975 22.87799866 -3.59657288 23.96986389 C-4.05834839 25.68997766 -4.53655642 27.4056675 -5.01844788 29.12025452 C-6.17829829 25.65703921 -5.84105269 23.17517221 -5.14344788 19.62025452 C-4.15376299 14.22016181 -3.61257765 8.89727606 -3.26454163 3.42103577 C-2.95452998 0.52267294 -2.90865739 0.17329117 0 0 Z " fill="#919191" transform="translate(586.0184478759766,448.87974548339844)"/>
<path d="M0 0 C3.41486644 5.12229966 3.15235227 10.24024962 3.16113281 16.2434082 C3.16609772 17.06034149 3.17106262 17.87727478 3.17617798 18.71896362 C3.19074421 21.41291151 3.19759223 24.10680051 3.203125 26.80078125 C3.20888087 28.68019105 3.21463854 30.55960084 3.22039795 32.43901062 C3.23089208 36.37723055 3.23674518 40.31543017 3.24023438 44.25366211 C3.24571673 49.28727275 3.26974598 54.32061259 3.29820633 59.35413837 C3.31687653 63.23616814 3.32204063 67.11813322 3.32357025 71.00020409 C3.32658724 72.85526193 3.33458341 74.71031888 3.34775543 76.56533241 C3.36490837 79.16656443 3.36291335 81.76714178 3.35644531 84.3684082 C3.3656601 85.12660355 3.37487488 85.88479889 3.3843689 86.66596985 C3.34275344 92.03850262 2.11097885 96.05651582 0 101 C-0.33 101 -0.66 101 -1 101 C-0.85769192 99.58297487 -0.71099254 98.1663904 -0.5625 96.75 C-0.48128906 95.96109375 -0.40007813 95.1721875 -0.31640625 94.359375 C0 92 0 92 0.51168823 90.27813721 C1.16750354 87.21854015 1.12735698 84.31984496 1.12939453 81.19042969 C1.13114685 80.51328918 1.13289917 79.83614868 1.13470459 79.13848877 C1.13910389 76.89959138 1.13618791 74.66077321 1.1328125 72.421875 C1.13348703 70.85166407 1.13445829 69.28145325 1.13571167 67.71124268 C1.13718682 64.41262828 1.13504339 61.11404094 1.13037109 57.81542969 C1.1247302 53.63351607 1.12791769 49.45166744 1.13394356 45.26975632 C1.13760258 42.01962824 1.13638547 38.76951488 1.13381577 35.51938629 C1.1331582 33.98076621 1.13393293 32.44214471 1.13629532 30.90352631 C1.148667 20.56347253 0.76223938 10.31234363 0 0 Z " fill="#B99901" transform="translate(807,851)"/>
<path d="M0 0 C0.33 0 0.66 0 1 0 C1.33 29.7 1.66 59.4 2 90 C2.66 90 3.32 90 4 90 C4.33 93.3 4.66 96.6 5 100 C-1.16985659 93.83014341 -0.3239004 82.37116298 -0.34817982 74.17696762 C-0.33966414 71.45637339 -0.31659728 68.7361264 -0.29296875 66.015625 C-0.28736247 64.10463802 -0.28309726 62.19364667 -0.28010559 60.28265381 C-0.26873797 55.29154218 -0.2393418 50.30069908 -0.20599365 45.30969238 C-0.17511701 40.20129019 -0.16156292 35.09284393 -0.14648438 29.984375 C-0.11446318 19.98946638 -0.06336647 9.99475566 0 0 Z " fill="#C89E01" transform="translate(649,861)"/>
<path d="M0 0 C0.33 0 0.66 0 1 0 C2.35148541 4.30785975 3 7.41957592 3 12 C18.18 12 33.36 12 49 12 C49 12.33 49 12.66 49 13 C33.16 13 17.32 13 1 13 C0.06508817 8.32544083 -0.07972012 4.7034873 0 0 Z " fill="#1C1500" transform="translate(570,852)"/>
<path d="M0 0 C0.66 0.33 1.32 0.66 2 1 C1.30132812 1.69609375 0.60265625 2.3921875 -0.1171875 3.109375 C-2.09477035 5.08556421 -4.05556712 7.07691655 -6.0078125 9.078125 C-7.04682909 10.13546178 -8.08589205 11.192753 -9.125 12.25 C-9.64964844 12.79140625 -10.17429687 13.3328125 -10.71484375 13.890625 C-13.12025044 16.32647988 -14.70534405 17.90178135 -18 19 C-14.21221541 10.7473872 -7.19881827 5.22363231 0 0 Z " fill="#C0C0C1" transform="translate(471,308)"/>
<path d="M0 0 C0.66 0.33 1.32 0.66 2 1 C0.04468135 2.9822267 -1.91405666 4.96085116 -3.875 6.9375 C-4.43058594 7.50146484 -4.98617187 8.06542969 -5.55859375 8.64648438 C-9.7734375 12.88671875 -9.7734375 12.88671875 -12 14 C-12.28875 14.7425 -12.5775 15.485 -12.875 16.25 C-14.13818288 19.33778039 -15.83904073 21.47888085 -18 24 C-17.55504809 15.10096185 -10.22565988 8.69806159 -4 3 C-2.69529458 1.96292646 -1.37821084 0.93718337 0 0 Z " fill="#C39F02" transform="translate(722,825)"/>
<path d="M0 0 C8.44724865 1.12629982 16.79749151 2.69205408 25.125 4.5 C26.76855469 4.85578125 26.76855469 4.85578125 28.4453125 5.21875 C29.28835938 5.4765625 30.13140625 5.734375 31 6 C31.33 6.66 31.66 7.32 32 8 C25.5543726 7.59075382 19.46046865 6.53659037 13.1875 5.0625 C12.45861572 4.89266602 11.72973145 4.72283203 10.97875977 4.54785156 C7.1807345 3.63077061 3.58060495 2.56871297 0 1 C0 0.67 0 0.34 0 0 Z " fill="#AEADAD" transform="translate(717,436)"/>
<path d="M0 0 C0.66 0.33 1.32 0.66 2 1 C0.25113898 2.91771657 -1.49904501 4.83419683 -3.25 6.75 C-3.74113281 7.28882813 -4.23226562 7.82765625 -4.73828125 8.3828125 C-10.71419736 14.91648078 -10.71419736 14.91648078 -13 17 C-13.66 17 -14.32 17 -15 17 C-11.80573668 9.96948907 -6.00185406 4.6843739 0 0 Z " fill="#BFBEBF" transform="translate(682,308)"/>
<path d="M0 0 C0.33 0.99 0.66 1.98 1 3 C1.66 3 2.32 3 3 3 C3.38999191 10.59762024 2.60758587 16.84466021 0 24 C-0.66 24 -1.32 24 -2 24 C-1.50886719 22.54400391 -1.50886719 22.54400391 -1.0078125 21.05859375 C0.23781217 16.6989074 0.2253404 12.56624028 0.125 8.0625 C0.11146484 6.89364258 0.11146484 6.89364258 0.09765625 5.70117188 C0.07433691 3.80064553 0.03847586 1.90027992 0 0 Z " fill="#676667" transform="translate(792,465)"/>
<path d="M0 0 C0.66 0.33 1.32 0.66 2 1 C0.90033225 2.29549899 -0.20491801 3.58626071 -1.3125 4.875 C-1.92738281 5.59429687 -2.54226563 6.31359375 -3.17578125 7.0546875 C-5 9 -5 9 -8 11 C-8.66 11.99 -9.32 12.98 -10 14 C-9.67967594 8.71465294 -6.61273386 5.56779936 -3 2 C-2.01 1.34 -1.02 0.68 0 0 Z " fill="#4A4A4A" transform="translate(717,342)"/>
<path d="M0 0 C0.97839844 0.20496094 1.95679688 0.40992188 2.96484375 0.62109375 C9.96736101 2.06733376 16.86651022 3.37425528 24 4 C24 4.33 24 4.66 24 5 C21.04142591 5.05379226 18.08382279 5.09357093 15.125 5.125 C13.86236328 5.15013672 13.86236328 5.15013672 12.57421875 5.17578125 C11.76855469 5.18222656 10.96289062 5.18867187 10.1328125 5.1953125 C9.01737061 5.21102295 9.01737061 5.21102295 7.87939453 5.22705078 C6 5 6 5 4 3 C1.93125966 2.3574765 1.93125966 2.3574765 0 2 C0 1.34 0 0.68 0 0 Z " fill="#E1BB02" transform="translate(714,1024)"/>
<path d="M0 0 C0.33 0 0.66 0 1 0 C2.35148541 4.30785975 3 7.41957592 3 12 C6.3 12 9.6 12 13 12 C13 12.33 13 12.66 13 13 C9.04 13 5.08 13 1 13 C0.06508817 8.32544083 -0.07972012 4.7034873 0 0 Z " fill="#3F3100" transform="translate(570,852)"/>
<path d="M0 0 C7.92 0 15.84 0 24 0 C24 0.33 24 0.66 24 1 C17.25 3.125 17.25 3.125 15 2 C11.65186916 1.96916195 8.31559587 2.06759967 4.96875 2.16015625 C2 2 2 2 0 0 Z " fill="#090909" transform="translate(526,338)"/>
<path d="M0 0 C0.33 0 0.66 0 1 0 C1 3.96 1 7.92 1 12 C1.66 12 2.32 12 3 12 C3.33 15.3 3.66 18.6 4 22 C0.64101828 18.64101828 0.05411079 15.01078962 -0.1953125 10.3515625 C-0.17210937 9.12179687 -0.14890625 7.89203125 -0.125 6.625 C-0.10695313 5.37976563 -0.08890625 4.13453125 -0.0703125 2.8515625 C-0.04710937 1.91054688 -0.02390625 0.96953125 0 0 Z " fill="#917402" transform="translate(650,939)"/>
<path d="M0 0 C0.99 0.495 0.99 0.495 2 1 C2.5625 2.7421875 2.5625 2.7421875 3 4.875 C3.63611239 7.95332961 4.1789302 9.2683953 6 12 C5.625 14.1875 5.625 14.1875 5 16 C1.91532502 10.60540561 0.44356295 6.20988129 0 0 Z " fill="#B39201" transform="translate(469,943)"/>
<path d="M0 0 C0.66 0.33 1.32 0.66 2 1 C0.56665422 2.62866544 -0.87182979 4.25280994 -2.3125 5.875 C-3.51326172 7.23238281 -3.51326172 7.23238281 -4.73828125 8.6171875 C-7 11 -7 11 -10 13 C-8.48446596 9.52224821 -6.4226544 7.0442016 -3.875 4.25 C-3.15054687 3.45078125 -2.42609375 2.6515625 -1.6796875 1.828125 C-0.84824219 0.92320312 -0.84824219 0.92320312 0 0 Z " fill="#575757" transform="translate(502,346)"/>
<path d="M0 0 C0.66 0.33 1.32 0.66 2 1 C1.0919838 2.13199353 0.17316174 3.25532363 -0.75 4.375 C-1.26046875 5.00148438 -1.7709375 5.62796875 -2.296875 6.2734375 C-4.08199481 8.08312318 -5.67949644 9.00117455 -8 10 C-6.34908222 5.70761377 -3.26245434 3.1206085 0 0 Z " fill="#B49002" transform="translate(486,828)"/>
<path d="M0 0 C1.32 0 2.64 0 4 0 C3.67 0.99 3.34 1.98 3 3 C2.34 3 1.68 3 1 3 C1 7.62 1 12.24 1 17 C0.67 17 0.34 17 0 17 C0 11.39 0 5.78 0 0 Z " fill="#EBEBEB" transform="translate(650,455)"/>
<path d="M0 0 C0.66 0.33 1.32 0.66 2 1 C-3.90506815 4.82735898 -7.92512658 6.64317031 -15 6 C-12.35578277 4.23718851 -10.46970304 3.38285547 -7.5 2.4375 C-6.7265625 2.18871094 -5.953125 1.93992187 -5.15625 1.68359375 C-4.4446875 1.45800781 -3.733125 1.23242188 -3 1 C-2.01 0.67 -1.02 0.34 0 0 Z " fill="#A98C01" transform="translate(801,1020)"/>
<path d="M0 0 C2.36557373 2.13300328 3.62967528 3.95949399 4.75 6.9375 C5.01296875 7.60652344 5.2759375 8.27554688 5.546875 8.96484375 C6.07046274 11.31647491 5.74954377 12.73617523 5 15 C4.34865075 13.43979133 3.70417036 11.87671421 3.0625 10.3125 C2.70285156 9.44238281 2.34320312 8.57226562 1.97265625 7.67578125 C1.0429688 5.11820735 0.45837375 2.6778677 0 0 Z " fill="#755E01" transform="translate(849,825)"/>
<path d="M0 0 C1.55831174 5.69019895 -0.29616382 8.82744383 -3 14 C-4 12 -4 12 -3.22265625 9.1796875 C-2.83980469 8.08914063 -2.45695312 6.99859375 -2.0625 5.875 C-1.68222656 4.77929688 -1.30195313 3.68359375 -0.91015625 2.5546875 C-0.60980469 1.71164062 -0.30945313 0.86859375 0 0 Z " fill="#3E3001" transform="translate(428,824)"/>
<path d="M0 0 C-3.59462331 2.25998595 -6.56595675 2.20868087 -10.75 2.125 C-11.92046875 2.10695313 -13.0909375 2.08890625 -14.296875 2.0703125 C-15.63492188 2.03550781 -15.63492188 2.03550781 -17 2 C-17 1.67 -17 1.34 -17 1 C-14.91835982 0.63601378 -12.83459438 0.28416713 -10.75 -0.0625 C-9.00976562 -0.35833984 -9.00976562 -0.35833984 -7.234375 -0.66015625 C-4.37477376 -0.9606216 -2.66674071 -0.9439206 0 0 Z " fill="#4B4B4B" transform="translate(571,547)"/>
<path d="M0 0 C0.33 0.66 0.66 1.32 1 2 C-0.61000397 5.13950774 -2.38499232 7.63404067 -5 10 C-5.66 9.67 -6.32 9.34 -7 9 C-4.69 6.03 -2.38 3.06 0 0 Z " fill="#3F3F3F" transform="translate(832,514)"/>
<path d="M0 0 C0.66 0 1.32 0 2 0 C1.42647107 3.87132028 -0.48704352 6.08172796 -3 9 C-2.5020163 5.26512223 -2.12508244 3.18762365 0 0 Z " fill="#B59401" transform="translate(707,840)"/>
<path d="M0 0 C0.33 0.66 0.66 1.32 1 2 C-1.57784846 4.64752004 -3.91648098 6.94432065 -7 9 C-5.44499019 5.18315774 -2.96404505 2.80804268 0 0 Z " fill="#594602" transform="translate(444,802)"/>
<path d="M0 0 C0.33 0 0.66 0 1 0 C1.25 2.8125 1.25 2.8125 1 6 C-1 7.875 -1 7.875 -3 9 C-2.5020163 5.26512223 -2.12508244 3.18762365 0 0 Z " fill="#A08402" transform="translate(475,841)"/>
</svg>
